{
	"asset":{
		"generator":"Khronos glTF Blender I/O v4.0.44",
		"version":"2.0"
	},
	"scene":0,
	"scenes":[
		{
			"name":"Scene",
			"nodes":[
				0
			]
		}
	],
	"nodes":[
		{
			"mesh":0,
			"name":"bed"
		}
	],
	"meshes":[
		{
			"name":"bed",
			"primitives":[
				{
					"attributes":{
						"POSITION":0,
						"NORMAL":1
					},
					"indices":2
				}
			]
		}
	],
	"accessors":[
		{
			"bufferView":0,
			"componentType":5126,
			"count":805,
			"max":[
				1625,
				2165,
				268
			],
			"min":[
				0,
				0,
				0
			],
			"type":"VEC3"
		},
		{
			"bufferView":1,
			"componentType":5126,
			"count":805,
			"type":"VEC3"
		},
		{
			"bufferView":2,
			"componentType":5123,
			"count":1512,
			"type":"SCALAR"
		}
	],
	"bufferViews":[
		{
			"buffer":0,
			"byteLength":9660,
			"byteOffset":0,
			"target":34962
		},
		{
			"buffer":0,
			"byteLength":9660,
			"byteOffset":9660,
			"target":34962
		},
		{
			"buffer":0,
			"byteLength":3024,
			"byteOffset":19320,
			"target":34963
		}
	],
	"buffers":[
		{
			"byteLength":22344,
			"uri":"bed.bin"
		}
	]
}
