{
	"asset":{
		"generator":"Khronos glTF Blender I/O v4.1.63",
		"version":"2.0"
	},
	"scene":0,
	"scenes":[
		{
			"name":"Scene",
			"nodes":[
				0
			]
		}
	],
	"nodes":[
		{
			"mesh":0,
			"name":"bureaum_kastm_kast"
		}
	],
	"materials":[
		{
			"doubleSided":true,
			"name":"Material.059",
			"pbrMetallicRoughness":{
				"baseColorFactor":[
					0,
					0,
					0,
					1
				],
				"metallicFactor":0,
				"roughnessFactor":0.5
			}
		},
		{
			"doubleSided":true,
			"name":"Color.005",
			"pbrMetallicRoughness":{
				"metallicFactor":0,
				"roughnessFactor":0.5
			}
		},
		{
			"doubleSided":true,
			"name":"Material.064",
			"pbrMetallicRoughness":{
				"baseColorTexture":{
					"index":0
				},
				"metallicFactor":0,
				"roughnessFactor":0.5
			}
		},
		{
			"doubleSided":true,
			"name":"Color.006",
			"pbrMetallicRoughness":{
				"metallicFactor":0,
				"roughnessFactor":0.5
			}
		},
		{
			"doubleSided":true,
			"name":"Material.076",
			"pbrMetallicRoughness":{
				"baseColorTexture":{
					"index":1
				},
				"metallicFactor":0,
				"roughnessFactor":0.5
			}
		},
		{
			"doubleSided":true,
			"name":"Color.007",
			"pbrMetallicRoughness":{
				"metallicFactor":0,
				"roughnessFactor":0.5
			}
		},
		{
			"doubleSided":true,
			"name":"Material.078",
			"pbrMetallicRoughness":{
				"baseColorTexture":{
					"index":2
				},
				"metallicFactor":0,
				"roughnessFactor":0.5
			}
		}
	],
	"meshes":[
		{
			"name":"tv wand.009",
			"primitives":[
				{
					"attributes":{
						"POSITION":0,
						"NORMAL":1,
						"TEXCOORD_0":2
					},
					"indices":3,
					"material":0
				},
				{
					"attributes":{
						"POSITION":4,
						"NORMAL":5,
						"TEXCOORD_0":6
					},
					"indices":7,
					"material":1
				},
				{
					"attributes":{
						"POSITION":8,
						"NORMAL":9,
						"TEXCOORD_0":10
					},
					"indices":11,
					"material":2
				},
				{
					"attributes":{
						"POSITION":12,
						"NORMAL":13,
						"TEXCOORD_0":14
					},
					"indices":15,
					"material":3
				},
				{
					"attributes":{
						"POSITION":16,
						"NORMAL":17,
						"TEXCOORD_0":18
					},
					"indices":19,
					"material":4
				},
				{
					"attributes":{
						"POSITION":20,
						"NORMAL":21,
						"TEXCOORD_0":22
					},
					"indices":23,
					"material":5
				},
				{
					"attributes":{
						"POSITION":24,
						"NORMAL":25,
						"TEXCOORD_0":26
					},
					"indices":27,
					"material":6
				}
			]
		}
	],
	"textures":[
		{
			"sampler":0,
			"source":0
		},
		{
			"sampler":0,
			"source":0
		},
		{
			"sampler":0,
			"source":0
		}
	],
	"images":[
		{
			"mimeType":"image/jpeg",
			"name":"oak",
			"uri":"oak.jpg"
		}
	],
	"accessors":[
		{
			"bufferView":0,
			"componentType":5126,
			"count":1858,
			"max":[
				1667,
				1912,
				3124.5
			],
			"min":[
				48.70151901245117,
				-0.5,
				2202
			],
			"type":"VEC3"
		},
		{
			"bufferView":1,
			"componentType":5126,
			"count":1858,
			"type":"VEC3"
		},
		{
			"bufferView":2,
			"componentType":5126,
			"count":1858,
			"type":"VEC2"
		},
		{
			"bufferView":3,
			"componentType":5123,
			"count":5337,
			"type":"SCALAR"
		},
		{
			"bufferView":4,
			"componentType":5126,
			"count":617,
			"max":[
				1685,
				2211,
				3121.775146484375
			],
			"min":[
				0,
				0,
				2184
			],
			"type":"VEC3"
		},
		{
			"bufferView":5,
			"componentType":5126,
			"count":617,
			"type":"VEC3"
		},
		{
			"bufferView":6,
			"componentType":5126,
			"count":617,
			"type":"VEC2"
		},
		{
			"bufferView":7,
			"componentType":5123,
			"count":1392,
			"type":"SCALAR"
		},
		{
			"bufferView":8,
			"componentType":5126,
			"count":978,
			"max":[
				1667,
				1909.7672119140625,
				3149.5
			],
			"min":[
				18,
				769.5,
				2202
			],
			"type":"VEC3"
		},
		{
			"bufferView":9,
			"componentType":5126,
			"count":978,
			"type":"VEC3"
		},
		{
			"bufferView":10,
			"componentType":5126,
			"count":978,
			"type":"VEC2"
		},
		{
			"bufferView":11,
			"componentType":5123,
			"count":2217,
			"type":"SCALAR"
		},
		{
			"bufferView":12,
			"componentType":5126,
			"count":154,
			"max":[
				1685,
				2211,
				400
			],
			"min":[
				0,
				0,
				0
			],
			"type":"VEC3"
		},
		{
			"bufferView":13,
			"componentType":5126,
			"count":154,
			"type":"VEC3"
		},
		{
			"bufferView":14,
			"componentType":5126,
			"count":154,
			"type":"VEC2"
		},
		{
			"bufferView":15,
			"componentType":5123,
			"count":687,
			"type":"SCALAR"
		},
		{
			"bufferView":16,
			"componentType":5126,
			"count":143,
			"max":[
				1685,
				2018,
				391
			],
			"min":[
				18,
				282,
				0
			],
			"type":"VEC3"
		},
		{
			"bufferView":17,
			"componentType":5126,
			"count":143,
			"type":"VEC3"
		},
		{
			"bufferView":18,
			"componentType":5126,
			"count":143,
			"type":"VEC2"
		},
		{
			"bufferView":19,
			"componentType":5123,
			"count":219,
			"type":"SCALAR"
		},
		{
			"bufferView":20,
			"componentType":5126,
			"count":268,
			"max":[
				1685,
				2211,
				2184
			],
			"min":[
				0,
				0,
				1784
			],
			"type":"VEC3"
		},
		{
			"bufferView":21,
			"componentType":5126,
			"count":268,
			"type":"VEC3"
		},
		{
			"bufferView":22,
			"componentType":5126,
			"count":268,
			"type":"VEC2"
		},
		{
			"bufferView":23,
			"componentType":5123,
			"count":582,
			"type":"SCALAR"
		},
		{
			"bufferView":24,
			"componentType":5126,
			"count":112,
			"max":[
				1667,
				1772.4000244140625,
				2166
			],
			"min":[
				18,
				438.6000061035156,
				1802
			],
			"type":"VEC3"
		},
		{
			"bufferView":25,
			"componentType":5126,
			"count":112,
			"type":"VEC3"
		},
		{
			"bufferView":26,
			"componentType":5126,
			"count":112,
			"type":"VEC2"
		},
		{
			"bufferView":27,
			"componentType":5123,
			"count":162,
			"type":"SCALAR"
		}
	],
	"bufferViews":[
		{
			"buffer":0,
			"byteLength":22296,
			"byteOffset":0,
			"target":34962
		},
		{
			"buffer":0,
			"byteLength":22296,
			"byteOffset":22296,
			"target":34962
		},
		{
			"buffer":0,
			"byteLength":14864,
			"byteOffset":44592,
			"target":34962
		},
		{
			"buffer":0,
			"byteLength":10674,
			"byteOffset":59456,
			"target":34963
		},
		{
			"buffer":0,
			"byteLength":7404,
			"byteOffset":70132,
			"target":34962
		},
		{
			"buffer":0,
			"byteLength":7404,
			"byteOffset":77536,
			"target":34962
		},
		{
			"buffer":0,
			"byteLength":4936,
			"byteOffset":84940,
			"target":34962
		},
		{
			"buffer":0,
			"byteLength":2784,
			"byteOffset":89876,
			"target":34963
		},
		{
			"buffer":0,
			"byteLength":11736,
			"byteOffset":92660,
			"target":34962
		},
		{
			"buffer":0,
			"byteLength":11736,
			"byteOffset":104396,
			"target":34962
		},
		{
			"buffer":0,
			"byteLength":7824,
			"byteOffset":116132,
			"target":34962
		},
		{
			"buffer":0,
			"byteLength":4434,
			"byteOffset":123956,
			"target":34963
		},
		{
			"buffer":0,
			"byteLength":1848,
			"byteOffset":128392,
			"target":34962
		},
		{
			"buffer":0,
			"byteLength":1848,
			"byteOffset":130240,
			"target":34962
		},
		{
			"buffer":0,
			"byteLength":1232,
			"byteOffset":132088,
			"target":34962
		},
		{
			"buffer":0,
			"byteLength":1374,
			"byteOffset":133320,
			"target":34963
		},
		{
			"buffer":0,
			"byteLength":1716,
			"byteOffset":134696,
			"target":34962
		},
		{
			"buffer":0,
			"byteLength":1716,
			"byteOffset":136412,
			"target":34962
		},
		{
			"buffer":0,
			"byteLength":1144,
			"byteOffset":138128,
			"target":34962
		},
		{
			"buffer":0,
			"byteLength":438,
			"byteOffset":139272,
			"target":34963
		},
		{
			"buffer":0,
			"byteLength":3216,
			"byteOffset":139712,
			"target":34962
		},
		{
			"buffer":0,
			"byteLength":3216,
			"byteOffset":142928,
			"target":34962
		},
		{
			"buffer":0,
			"byteLength":2144,
			"byteOffset":146144,
			"target":34962
		},
		{
			"buffer":0,
			"byteLength":1164,
			"byteOffset":148288,
			"target":34963
		},
		{
			"buffer":0,
			"byteLength":1344,
			"byteOffset":149452,
			"target":34962
		},
		{
			"buffer":0,
			"byteLength":1344,
			"byteOffset":150796,
			"target":34962
		},
		{
			"buffer":0,
			"byteLength":896,
			"byteOffset":152140,
			"target":34962
		},
		{
			"buffer":0,
			"byteLength":324,
			"byteOffset":153036,
			"target":34963
		}
	],
	"samplers":[
		{
			"magFilter":9729,
			"minFilter":9987
		}
	],
	"buffers":[
		{
			"byteLength":153360,
			"uri":"bureaum_kastm_kast_oak.bin"
		}
	]
}
