{
	"asset":{
		"generator":"Khronos glTF Blender I/O v4.1.63",
		"version":"2.0"
	},
	"scene":0,
	"scenes":[
		{
			"name":"Scene",
			"nodes":[
				0
			]
		}
	],
	"nodes":[
		{
			"mesh":0,
			"name":"bureaum_kastm_kast_oak_white",
			"rotation":[
				0,
				1,
				0,
				0
			],
			"translation":[
				-1685,
				0,
				0
			]
		}
	],
	"materials":[
		{
			"doubleSided":true,
			"name":"Material.059",
			"pbrMetallicRoughness":{
				"metallicFactor":0,
				"roughnessFactor":0.5
			}
		},
		{
			"doubleSided":true,
			"name":"Material.060",
			"pbrMetallicRoughness":{
				"baseColorTexture":{
					"index":0
				},
				"metallicFactor":0,
				"roughnessFactor":0.5
			}
		},
		{
			"doubleSided":true,
			"name":"Material.061",
			"pbrMetallicRoughness":{
				"metallicFactor":0,
				"roughnessFactor":0.5
			}
		},
		{
			"doubleSided":true,
			"name":"Material.062",
			"pbrMetallicRoughness":{
				"baseColorTexture":{
					"index":1
				},
				"metallicFactor":0,
				"roughnessFactor":0.5
			}
		},
		{
			"doubleSided":true,
			"name":"Material.063",
			"pbrMetallicRoughness":{
				"baseColorFactor":[
					0,
					0,
					0,
					1
				],
				"metallicFactor":0,
				"roughnessFactor":0.5
			}
		},
		{
			"doubleSided":true,
			"name":"Material.064",
			"pbrMetallicRoughness":{
				"metallicFactor":0,
				"roughnessFactor":0.5
			}
		},
		{
			"doubleSided":true,
			"name":"Material.065",
			"pbrMetallicRoughness":{
				"baseColorTexture":{
					"index":2
				},
				"metallicFactor":0,
				"roughnessFactor":0.5
			}
		}
	],
	"meshes":[
		{
			"name":"Inloopkast 1.008",
			"primitives":[
				{
					"attributes":{
						"POSITION":0,
						"NORMAL":1,
						"TEXCOORD_0":2
					},
					"indices":3,
					"material":0
				},
				{
					"attributes":{
						"POSITION":4,
						"NORMAL":5,
						"TEXCOORD_0":6
					},
					"indices":7,
					"material":1
				},
				{
					"attributes":{
						"POSITION":8,
						"NORMAL":9,
						"TEXCOORD_0":10
					},
					"indices":11,
					"material":2
				},
				{
					"attributes":{
						"POSITION":12,
						"NORMAL":13,
						"TEXCOORD_0":14
					},
					"indices":15,
					"material":3
				},
				{
					"attributes":{
						"POSITION":16,
						"NORMAL":17,
						"TEXCOORD_0":18
					},
					"indices":19,
					"material":4
				},
				{
					"attributes":{
						"POSITION":20,
						"NORMAL":21,
						"TEXCOORD_0":22
					},
					"indices":23,
					"material":5
				},
				{
					"attributes":{
						"POSITION":24,
						"NORMAL":25,
						"TEXCOORD_0":26
					},
					"indices":27,
					"material":6
				}
			]
		}
	],
	"textures":[
		{
			"sampler":0,
			"source":0
		},
		{
			"sampler":0,
			"source":0
		},
		{
			"sampler":0,
			"source":0
		}
	],
	"images":[
		{
			"mimeType":"image/jpeg",
			"name":"oak",
			"uri":"oak.jpg"
		}
	],
	"accessors":[
		{
			"bufferView":0,
			"componentType":5126,
			"count":154,
			"max":[
				0,
				2211,
				0
			],
			"min":[
				-1685,
				0,
				-400
			],
			"type":"VEC3"
		},
		{
			"bufferView":1,
			"componentType":5126,
			"count":154,
			"type":"VEC3"
		},
		{
			"bufferView":2,
			"componentType":5126,
			"count":154,
			"type":"VEC2"
		},
		{
			"bufferView":3,
			"componentType":5123,
			"count":687,
			"type":"SCALAR"
		},
		{
			"bufferView":4,
			"componentType":5126,
			"count":143,
			"max":[
				0,
				2018,
				0
			],
			"min":[
				-1667,
				282,
				-391
			],
			"type":"VEC3"
		},
		{
			"bufferView":5,
			"componentType":5126,
			"count":143,
			"type":"VEC3"
		},
		{
			"bufferView":6,
			"componentType":5126,
			"count":143,
			"type":"VEC2"
		},
		{
			"bufferView":7,
			"componentType":5123,
			"count":219,
			"type":"SCALAR"
		},
		{
			"bufferView":8,
			"componentType":5126,
			"count":268,
			"max":[
				6.423583984375,
				2211,
				-1786.7371826171875
			],
			"min":[
				-1678.576416015625,
				0,
				-2186.7373046875
			],
			"type":"VEC3"
		},
		{
			"bufferView":9,
			"componentType":5126,
			"count":268,
			"type":"VEC3"
		},
		{
			"bufferView":10,
			"componentType":5126,
			"count":268,
			"type":"VEC2"
		},
		{
			"bufferView":11,
			"componentType":5123,
			"count":582,
			"type":"SCALAR"
		},
		{
			"bufferView":12,
			"componentType":5126,
			"count":112,
			"max":[
				-11.576416015625,
				1772.4000244140625,
				-1804.7371826171875
			],
			"min":[
				-1660.576416015625,
				438.6000061035156,
				-2168.7373046875
			],
			"type":"VEC3"
		},
		{
			"bufferView":13,
			"componentType":5126,
			"count":112,
			"type":"VEC3"
		},
		{
			"bufferView":14,
			"componentType":5126,
			"count":112,
			"type":"VEC2"
		},
		{
			"bufferView":15,
			"componentType":5123,
			"count":162,
			"type":"SCALAR"
		},
		{
			"bufferView":16,
			"componentType":5126,
			"count":1873,
			"max":[
				-11.576416015625,
				1912,
				-2202
			],
			"min":[
				-1629.8748779296875,
				-0.5,
				-3124.5
			],
			"type":"VEC3"
		},
		{
			"bufferView":17,
			"componentType":5126,
			"count":1873,
			"type":"VEC3"
		},
		{
			"bufferView":18,
			"componentType":5126,
			"count":1873,
			"type":"VEC2"
		},
		{
			"bufferView":19,
			"componentType":5123,
			"count":5334,
			"type":"SCALAR"
		},
		{
			"bufferView":20,
			"componentType":5126,
			"count":620,
			"max":[
				6.423583984375,
				2211,
				-2184
			],
			"min":[
				-1678.576416015625,
				0,
				-3121.775146484375
			],
			"type":"VEC3"
		},
		{
			"bufferView":21,
			"componentType":5126,
			"count":620,
			"type":"VEC3"
		},
		{
			"bufferView":22,
			"componentType":5126,
			"count":620,
			"type":"VEC2"
		},
		{
			"bufferView":23,
			"componentType":5123,
			"count":1395,
			"type":"SCALAR"
		},
		{
			"bufferView":24,
			"componentType":5126,
			"count":979,
			"max":[
				-11.576416015625,
				1909.7672119140625,
				-2202
			],
			"min":[
				-1660.576416015625,
				769.5,
				-3149.5
			],
			"type":"VEC3"
		},
		{
			"bufferView":25,
			"componentType":5126,
			"count":979,
			"type":"VEC3"
		},
		{
			"bufferView":26,
			"componentType":5126,
			"count":979,
			"type":"VEC2"
		},
		{
			"bufferView":27,
			"componentType":5123,
			"count":2217,
			"type":"SCALAR"
		}
	],
	"bufferViews":[
		{
			"buffer":0,
			"byteLength":1848,
			"byteOffset":0,
			"target":34962
		},
		{
			"buffer":0,
			"byteLength":1848,
			"byteOffset":1848,
			"target":34962
		},
		{
			"buffer":0,
			"byteLength":1232,
			"byteOffset":3696,
			"target":34962
		},
		{
			"buffer":0,
			"byteLength":1374,
			"byteOffset":4928,
			"target":34963
		},
		{
			"buffer":0,
			"byteLength":1716,
			"byteOffset":6304,
			"target":34962
		},
		{
			"buffer":0,
			"byteLength":1716,
			"byteOffset":8020,
			"target":34962
		},
		{
			"buffer":0,
			"byteLength":1144,
			"byteOffset":9736,
			"target":34962
		},
		{
			"buffer":0,
			"byteLength":438,
			"byteOffset":10880,
			"target":34963
		},
		{
			"buffer":0,
			"byteLength":3216,
			"byteOffset":11320,
			"target":34962
		},
		{
			"buffer":0,
			"byteLength":3216,
			"byteOffset":14536,
			"target":34962
		},
		{
			"buffer":0,
			"byteLength":2144,
			"byteOffset":17752,
			"target":34962
		},
		{
			"buffer":0,
			"byteLength":1164,
			"byteOffset":19896,
			"target":34963
		},
		{
			"buffer":0,
			"byteLength":1344,
			"byteOffset":21060,
			"target":34962
		},
		{
			"buffer":0,
			"byteLength":1344,
			"byteOffset":22404,
			"target":34962
		},
		{
			"buffer":0,
			"byteLength":896,
			"byteOffset":23748,
			"target":34962
		},
		{
			"buffer":0,
			"byteLength":324,
			"byteOffset":24644,
			"target":34963
		},
		{
			"buffer":0,
			"byteLength":22476,
			"byteOffset":24968,
			"target":34962
		},
		{
			"buffer":0,
			"byteLength":22476,
			"byteOffset":47444,
			"target":34962
		},
		{
			"buffer":0,
			"byteLength":14984,
			"byteOffset":69920,
			"target":34962
		},
		{
			"buffer":0,
			"byteLength":10668,
			"byteOffset":84904,
			"target":34963
		},
		{
			"buffer":0,
			"byteLength":7440,
			"byteOffset":95572,
			"target":34962
		},
		{
			"buffer":0,
			"byteLength":7440,
			"byteOffset":103012,
			"target":34962
		},
		{
			"buffer":0,
			"byteLength":4960,
			"byteOffset":110452,
			"target":34962
		},
		{
			"buffer":0,
			"byteLength":2790,
			"byteOffset":115412,
			"target":34963
		},
		{
			"buffer":0,
			"byteLength":11748,
			"byteOffset":118204,
			"target":34962
		},
		{
			"buffer":0,
			"byteLength":11748,
			"byteOffset":129952,
			"target":34962
		},
		{
			"buffer":0,
			"byteLength":7832,
			"byteOffset":141700,
			"target":34962
		},
		{
			"buffer":0,
			"byteLength":4434,
			"byteOffset":149532,
			"target":34963
		}
	],
	"samplers":[
		{
			"magFilter":9729,
			"minFilter":9987
		}
	],
	"buffers":[
		{
			"byteLength":153968,
			"uri":"bureaum_kastm_kast_oak_white_new.bin"
		}
	]
}
