{
	"asset":{
		"generator":"Khronos glTF Blender I/O v4.1.63",
		"version":"2.0"
	},
	"scene":0,
	"scenes":[
		{
			"name":"Scene",
			"nodes":[
				0
			]
		}
	],
	"nodes":[
		{
			"mesh":0,
			"name":"tv wand.001",
			"translation":[
				-735.14794921875,
				-478.0200500488281,
				-6.422620208468288e-05
			]
		}
	],
	"materials":[
		{
			"doubleSided":true,
			"name":"Material.001",
			"pbrMetallicRoughness":{
				"baseColorFactor":[
					0.05400000140070915,
					0.05400000140070915,
					0.05400000140070915,
					1
				],
				"metallicFactor":0,
				"roughnessFactor":0.5
			}
		},
		{
			"doubleSided":true,
			"name":"Material.002",
			"pbrMetallicRoughness":{
				"baseColorFactor":[
					0.05411403253674507,
					0.05411403253674507,
					0.05411403253674507,
					1
				],
				"metallicFactor":0,
				"roughnessFactor":0.5
			}
		},
		{
			"doubleSided":true,
			"name":"Material.003",
			"pbrMetallicRoughness":{
				"baseColorTexture":{
					"index":0
				},
				"metallicFactor":0,
				"roughnessFactor":0.5
			}
		}
	],
	"meshes":[
		{
			"name":"tv wand.001",
			"primitives":[
				{
					"attributes":{
						"POSITION":0,
						"NORMAL":1,
						"TEXCOORD_0":2
					},
					"indices":3,
					"material":0
				},
				{
					"attributes":{
						"POSITION":4,
						"NORMAL":5,
						"TEXCOORD_0":6
					},
					"indices":7,
					"material":1
				},
				{
					"attributes":{
						"POSITION":8,
						"NORMAL":9,
						"TEXCOORD_0":10
					},
					"indices":11,
					"material":2
				}
			]
		}
	],
	"textures":[
		{
			"sampler":0,
			"source":0
		}
	],
	"images":[
		{
			"mimeType":"image/jpeg",
			"name":"oak",
			"uri":"oak.jpg"
		}
	],
	"accessors":[
		{
			"bufferView":0,
			"componentType":5126,
			"count":1077,
			"max":[
				1667,
				2193,
				940.5
			],
			"min":[
				18,
				213,
				18
			],
			"type":"VEC3"
		},
		{
			"bufferView":1,
			"componentType":5126,
			"count":1077,
			"type":"VEC3"
		},
		{
			"bufferView":2,
			"componentType":5126,
			"count":1077,
			"type":"VEC2"
		},
		{
			"bufferView":3,
			"componentType":5123,
			"count":2829,
			"type":"SCALAR"
		},
		{
			"bufferView":4,
			"componentType":5126,
			"count":1727,
			"max":[
				1685,
				2211,
				940.5
			],
			"min":[
				0,
				-0.5,
				0
			],
			"type":"VEC3"
		},
		{
			"bufferView":5,
			"componentType":5126,
			"count":1727,
			"type":"VEC3"
		},
		{
			"bufferView":6,
			"componentType":5126,
			"count":1727,
			"type":"VEC2"
		},
		{
			"bufferView":7,
			"componentType":5123,
			"count":4575,
			"type":"SCALAR"
		},
		{
			"bufferView":8,
			"componentType":5126,
			"count":757,
			"max":[
				1667,
				1909.7672119140625,
				965.5
			],
			"min":[
				18,
				769.5,
				18
			],
			"type":"VEC3"
		},
		{
			"bufferView":9,
			"componentType":5126,
			"count":757,
			"type":"VEC3"
		},
		{
			"bufferView":10,
			"componentType":5126,
			"count":757,
			"type":"VEC2"
		},
		{
			"bufferView":11,
			"componentType":5123,
			"count":1542,
			"type":"SCALAR"
		}
	],
	"bufferViews":[
		{
			"buffer":0,
			"byteLength":12924,
			"byteOffset":0,
			"target":34962
		},
		{
			"buffer":0,
			"byteLength":12924,
			"byteOffset":12924,
			"target":34962
		},
		{
			"buffer":0,
			"byteLength":8616,
			"byteOffset":25848,
			"target":34962
		},
		{
			"buffer":0,
			"byteLength":5658,
			"byteOffset":34464,
			"target":34963
		},
		{
			"buffer":0,
			"byteLength":20724,
			"byteOffset":40124,
			"target":34962
		},
		{
			"buffer":0,
			"byteLength":20724,
			"byteOffset":60848,
			"target":34962
		},
		{
			"buffer":0,
			"byteLength":13816,
			"byteOffset":81572,
			"target":34962
		},
		{
			"buffer":0,
			"byteLength":9150,
			"byteOffset":95388,
			"target":34963
		},
		{
			"buffer":0,
			"byteLength":9084,
			"byteOffset":104540,
			"target":34962
		},
		{
			"buffer":0,
			"byteLength":9084,
			"byteOffset":113624,
			"target":34962
		},
		{
			"buffer":0,
			"byteLength":6056,
			"byteOffset":122708,
			"target":34962
		},
		{
			"buffer":0,
			"byteLength":3084,
			"byteOffset":128764,
			"target":34963
		}
	],
	"samplers":[
		{
			"magFilter":9729,
			"minFilter":9987
		}
	],
	"buffers":[
		{
			"byteLength":131848,
			"uri":"tv_wand_black.bin"
		}
	]
}
