{
	"asset":{
		"generator":"Khronos glTF Blender I/O v4.1.63",
		"version":"2.0"
	},
	"scene":0,
	"scenes":[
		{
			"name":"Scene",
			"nodes":[
				0
			]
		}
	],
	"nodes":[
		{
			"mesh":0,
			"name":"tv wand.001"
		}
	],
	"materials":[
		{
			"doubleSided":true,
			"name":"Material.001",
			"pbrMetallicRoughness":{
				"baseColorTexture":{
					"index":0
				},
				"metallicFactor":0,
				"roughnessFactor":0.5
			}
		}
	],
	"meshes":[
		{
			"name":"tv wand.001",
			"primitives":[
				{
					"attributes":{
						"POSITION":0,
						"NORMAL":1,
						"TEXCOORD_0":2
					},
					"indices":3,
					"material":0
				}
			]
		}
	],
	"textures":[
		{
			"sampler":0,
			"source":0
		}
	],
	"images":[
		{
			"mimeType":"image/jpeg",
			"name":"white_oak",
			"uri":"white_oak.jpg"
		}
	],
	"accessors":[
		{
			"bufferView":0,
			"componentType":5126,
			"count":3235,
			"max":[
				1685,
				2211,
				965.5
			],
			"min":[
				0,
				-0.5,
				0
			],
			"type":"VEC3"
		},
		{
			"bufferView":1,
			"componentType":5126,
			"count":3235,
			"type":"VEC3"
		},
		{
			"bufferView":2,
			"componentType":5126,
			"count":3235,
			"type":"VEC2"
		},
		{
			"bufferView":3,
			"componentType":5123,
			"count":8946,
			"type":"SCALAR"
		}
	],
	"bufferViews":[
		{
			"buffer":0,
			"byteLength":38820,
			"byteOffset":0,
			"target":34962
		},
		{
			"buffer":0,
			"byteLength":38820,
			"byteOffset":38820,
			"target":34962
		},
		{
			"buffer":0,
			"byteLength":25880,
			"byteOffset":77640,
			"target":34962
		},
		{
			"buffer":0,
			"byteLength":17892,
			"byteOffset":103520,
			"target":34963
		}
	],
	"samplers":[
		{
			"magFilter":9729,
			"minFilter":9987
		}
	],
	"buffers":[
		{
			"byteLength":121412,
			"uri":"tv_wand_white.bin"
		}
	]
}
