{
	"asset":{
		"generator":"Khronos glTF Blender I/O v4.1.63",
		"version":"2.0"
	},
	"scene":0,
	"scenes":[
		{
			"name":"Scene",
			"nodes":[
				0
			]
		}
	],
	"nodes":[
		{
			"mesh":0,
			"name":"tv wand.001"
		}
	],
	"materials":[
		{
			"doubleSided":true,
			"name":"Material.001",
			"pbrMetallicRoughness":{
				"metallicFactor":0,
				"roughnessFactor":0.5
			}
		},
		{
			"doubleSided":true,
			"name":"Material.002",
			"pbrMetallicRoughness":{
				"baseColorFactor":[
					0,
					0,
					0,
					1
				],
				"metallicFactor":0,
				"roughnessFactor":0.5
			}
		},
		{
			"doubleSided":true,
			"name":"Material.003",
			"pbrMetallicRoughness":{
				"metallicFactor":0,
				"roughnessFactor":0.5
			}
		}
	],
	"meshes":[
		{
			"name":"tv wand.001",
			"primitives":[
				{
					"attributes":{
						"POSITION":0,
						"NORMAL":1,
						"TEXCOORD_0":2
					},
					"indices":3,
					"material":0
				},
				{
					"attributes":{
						"POSITION":4,
						"NORMAL":5,
						"TEXCOORD_0":6
					},
					"indices":7,
					"material":1
				},
				{
					"attributes":{
						"POSITION":8,
						"NORMAL":9,
						"TEXCOORD_0":10
					},
					"indices":11,
					"material":2
				}
			]
		}
	],
	"accessors":[
		{
			"bufferView":0,
			"componentType":5126,
			"count":2143,
			"max":[
				1685,
				2211,
				965.5
			],
			"min":[
				0,
				-0.5,
				0
			],
			"type":"VEC3"
		},
		{
			"bufferView":1,
			"componentType":5126,
			"count":2143,
			"type":"VEC3"
		},
		{
			"bufferView":2,
			"componentType":5126,
			"count":2143,
			"type":"VEC2"
		},
		{
			"bufferView":3,
			"componentType":5123,
			"count":6027,
			"type":"SCALAR"
		},
		{
			"bufferView":4,
			"componentType":5126,
			"count":621,
			"max":[
				1685,
				2211,
				400.5
			],
			"min":[
				0,
				0,
				0
			],
			"type":"VEC3"
		},
		{
			"bufferView":5,
			"componentType":5126,
			"count":621,
			"type":"VEC3"
		},
		{
			"bufferView":6,
			"componentType":5126,
			"count":621,
			"type":"VEC2"
		},
		{
			"bufferView":7,
			"componentType":5123,
			"count":1425,
			"type":"SCALAR"
		},
		{
			"bufferView":8,
			"componentType":5126,
			"count":736,
			"max":[
				1667,
				1909.7672119140625,
				965.5
			],
			"min":[
				9,
				0,
				18
			],
			"type":"VEC3"
		},
		{
			"bufferView":9,
			"componentType":5126,
			"count":736,
			"type":"VEC3"
		},
		{
			"bufferView":10,
			"componentType":5126,
			"count":736,
			"type":"VEC2"
		},
		{
			"bufferView":11,
			"componentType":5123,
			"count":1494,
			"type":"SCALAR"
		}
	],
	"bufferViews":[
		{
			"buffer":0,
			"byteLength":25716,
			"byteOffset":0,
			"target":34962
		},
		{
			"buffer":0,
			"byteLength":25716,
			"byteOffset":25716,
			"target":34962
		},
		{
			"buffer":0,
			"byteLength":17144,
			"byteOffset":51432,
			"target":34962
		},
		{
			"buffer":0,
			"byteLength":12054,
			"byteOffset":68576,
			"target":34963
		},
		{
			"buffer":0,
			"byteLength":7452,
			"byteOffset":80632,
			"target":34962
		},
		{
			"buffer":0,
			"byteLength":7452,
			"byteOffset":88084,
			"target":34962
		},
		{
			"buffer":0,
			"byteLength":4968,
			"byteOffset":95536,
			"target":34962
		},
		{
			"buffer":0,
			"byteLength":2850,
			"byteOffset":100504,
			"target":34963
		},
		{
			"buffer":0,
			"byteLength":8832,
			"byteOffset":103356,
			"target":34962
		},
		{
			"buffer":0,
			"byteLength":8832,
			"byteOffset":112188,
			"target":34962
		},
		{
			"buffer":0,
			"byteLength":5888,
			"byteOffset":121020,
			"target":34962
		},
		{
			"buffer":0,
			"byteLength":2988,
			"byteOffset":126908,
			"target":34963
		}
	],
	"buffers":[
		{
			"byteLength":129896,
			"uri":"tv_wand_black.bin"
		}
	]
}
