{
	"asset":{
		"generator":"Khronos glTF Blender I/O v4.1.63",
		"version":"2.0"
	},
	"scene":0,
	"scenes":[
		{
			"name":"Scene",
			"nodes":[
				0
			]
		}
	],
	"nodes":[
		{
			"mesh":0,
			"name":"tv wand.001",
			"translation":[
				-735.14794921875,
				-478.0200500488281,
				-6.422620208468288e-05
			]
		}
	],
	"materials":[
		{
			"doubleSided":true,
			"name":"Material.001",
			"pbrMetallicRoughness":{
				"baseColorFactor":[
					0,
					0,
					0,
					1
				],
				"metallicFactor":0,
				"roughnessFactor":0.5
			}
		},
		{
			"doubleSided":true,
			"name":"Material.002",
			"pbrMetallicRoughness":{
				"baseColorFactor":[
					0.09305834025144577,
					0.09305903315544128,
					0.0930589959025383,
					1
				],
				"metallicFactor":0,
				"roughnessFactor":0.5
			}
		},
		{
			"doubleSided":true,
			"name":"Material.003",
			"pbrMetallicRoughness":{
				"baseColorTexture":{
					"index":0
				},
				"metallicFactor":0,
				"roughnessFactor":0.5
			}
		}
	],
	"meshes":[
		{
			"name":"tv wand.001",
			"primitives":[
				{
					"attributes":{
						"POSITION":0,
						"NORMAL":1,
						"TEXCOORD_0":2
					},
					"indices":3,
					"material":0
				},
				{
					"attributes":{
						"POSITION":4,
						"NORMAL":5,
						"TEXCOORD_0":6
					},
					"indices":7,
					"material":1
				},
				{
					"attributes":{
						"POSITION":8,
						"NORMAL":9,
						"TEXCOORD_0":10
					},
					"indices":11,
					"material":2
				}
			]
		}
	],
	"textures":[
		{
			"sampler":0,
			"source":0
		}
	],
	"images":[
		{
			"mimeType":"image/jpeg",
			"name":"oak",
			"uri":"oak.jpg"
		}
	],
	"accessors":[
		{
			"bufferView":0,
			"componentType":5126,
			"count":1837,
			"max":[
				1667,
				1912,
				940.5
			],
			"min":[
				48.70151901245117,
				-0.5,
				18
			],
			"type":"VEC3"
		},
		{
			"bufferView":1,
			"componentType":5126,
			"count":1837,
			"type":"VEC3"
		},
		{
			"bufferView":2,
			"componentType":5126,
			"count":1837,
			"type":"VEC2"
		},
		{
			"bufferView":3,
			"componentType":5123,
			"count":5337,
			"type":"SCALAR"
		},
		{
			"bufferView":4,
			"componentType":5126,
			"count":617,
			"max":[
				1685,
				2211,
				937.775146484375
			],
			"min":[
				0,
				0,
				0
			],
			"type":"VEC3"
		},
		{
			"bufferView":5,
			"componentType":5126,
			"count":617,
			"type":"VEC3"
		},
		{
			"bufferView":6,
			"componentType":5126,
			"count":617,
			"type":"VEC2"
		},
		{
			"bufferView":7,
			"componentType":5123,
			"count":1392,
			"type":"SCALAR"
		},
		{
			"bufferView":8,
			"componentType":5126,
			"count":978,
			"max":[
				1667,
				1909.7672119140625,
				965.5
			],
			"min":[
				18,
				769.5,
				18
			],
			"type":"VEC3"
		},
		{
			"bufferView":9,
			"componentType":5126,
			"count":978,
			"type":"VEC3"
		},
		{
			"bufferView":10,
			"componentType":5126,
			"count":978,
			"type":"VEC2"
		},
		{
			"bufferView":11,
			"componentType":5123,
			"count":2217,
			"type":"SCALAR"
		}
	],
	"bufferViews":[
		{
			"buffer":0,
			"byteLength":22044,
			"byteOffset":0,
			"target":34962
		},
		{
			"buffer":0,
			"byteLength":22044,
			"byteOffset":22044,
			"target":34962
		},
		{
			"buffer":0,
			"byteLength":14696,
			"byteOffset":44088,
			"target":34962
		},
		{
			"buffer":0,
			"byteLength":10674,
			"byteOffset":58784,
			"target":34963
		},
		{
			"buffer":0,
			"byteLength":7404,
			"byteOffset":69460,
			"target":34962
		},
		{
			"buffer":0,
			"byteLength":7404,
			"byteOffset":76864,
			"target":34962
		},
		{
			"buffer":0,
			"byteLength":4936,
			"byteOffset":84268,
			"target":34962
		},
		{
			"buffer":0,
			"byteLength":2784,
			"byteOffset":89204,
			"target":34963
		},
		{
			"buffer":0,
			"byteLength":11736,
			"byteOffset":91988,
			"target":34962
		},
		{
			"buffer":0,
			"byteLength":11736,
			"byteOffset":103724,
			"target":34962
		},
		{
			"buffer":0,
			"byteLength":7824,
			"byteOffset":115460,
			"target":34962
		},
		{
			"buffer":0,
			"byteLength":4434,
			"byteOffset":123284,
			"target":34963
		}
	],
	"samplers":[
		{
			"magFilter":9729,
			"minFilter":9987
		}
	],
	"buffers":[
		{
			"byteLength":127720,
			"uri":"tv_wand_black.bin"
		}
	]
}
