{
	"asset":{
		"generator":"Khronos glTF Blender I/O v4.0.44",
		"version":"2.0"
	},
	"scene":0,
	"scenes":[
		{
			"name":"Scene",
			"nodes":[
				0
			]
		}
	],
	"nodes":[
		{
			"mesh":0,
			"name":"tv wand",
			"scale":[
				0.10000000149011612,
				0.10000000149011612,
				0.10000000149011612
			]
		}
	],
	"meshes":[
		{
			"name":"tv wand",
			"primitives":[
				{
					"attributes":{
						"POSITION":0,
						"NORMAL":1
					},
					"indices":2
				}
			]
		}
	],
	"accessors":[
		{
			"bufferView":0,
			"componentType":5126,
			"count":5895,
			"max":[
				1685,
				2211,
				965.5
			],
			"min":[
				0,
				-0.5,
				0
			],
			"type":"VEC3"
		},
		{
			"bufferView":1,
			"componentType":5126,
			"count":5895,
			"type":"VEC3"
		},
		{
			"bufferView":2,
			"componentType":5123,
			"count":8946,
			"type":"SCALAR"
		}
	],
	"bufferViews":[
		{
			"buffer":0,
			"byteLength":70740,
			"byteOffset":0,
			"target":34962
		},
		{
			"buffer":0,
			"byteLength":70740,
			"byteOffset":70740,
			"target":34962
		},
		{
			"buffer":0,
			"byteLength":17892,
			"byteOffset":141480,
			"target":34963
		}
	],
	"buffers":[
		{
			"byteLength":159372,
			"uri":"tv_wand.bin"
		}
	]
}
